# Blender 5.1.0
# www.blender.org
mtllib Без имени.mtl
o Solid.001
v 5.642869 0.000000 -3.487485
v -5.642869 0.000000 -3.487486
v 5.642869 0.000000 3.487486
v -5.642869 0.000000 3.487485
v 3.487485 5.642869 -0.000000
v 3.487486 -5.642869 -0.000000
v -3.487486 5.642869 -0.000000
v -3.487485 -5.642869 -0.000000
v 0.000000 3.487485 -5.642869
v 0.000000 3.487486 5.642869
v 0.000000 -3.487486 -5.642869
v 0.000000 -3.487485 5.642869
v 6.265669 0.651799 0.576670
v 6.265669 -0.651799 -0.576670
v -6.265669 -0.651799 0.576670
v -6.265669 0.651799 -0.576670
v 5.216731 3.397955 1.120546
v 4.921335 2.867716 2.751850
v 4.564933 3.800788 -2.175179
v 5.573133 2.464883 -1.697217
v 5.216731 -3.397955 -1.120546
v 4.921335 -2.867716 -2.751850
v 4.564933 -3.800788 2.175179
v 5.573133 -2.464883 1.697217
v -5.216731 3.397955 -1.120546
v -4.921335 2.867716 -2.751850
v -4.564933 3.800788 2.175179
v -5.573133 2.464883 1.697217
v -0.576670 6.265669 -0.651799
v 0.576670 6.265669 0.651799
v -0.576670 -6.265669 0.651799
v 0.576670 -6.265669 -0.651799
v -5.216731 -3.397955 1.120546
v -4.921335 -2.867716 2.751850
v -4.564933 -3.800788 -2.175179
v -5.573133 -2.464883 -1.697217
v 2.464883 1.697217 -5.573133
v 3.800788 2.175179 -4.564933
v -2.867716 2.751850 -4.921335
v -3.397955 1.120546 -5.216732
v -1.120546 5.216731 -3.397955
v -2.751850 4.921335 -2.867716
v 2.175179 4.564933 -3.800788
v 1.697217 5.573133 -2.464883
v 1.120546 5.216731 3.397955
v 2.751850 4.921335 2.867716
v -2.175179 4.564933 3.800788
v -1.697217 5.573133 2.464883
v -2.464883 1.697217 5.573133
v -3.800788 2.175179 4.564933
v 2.867716 2.751850 4.921335
v 3.397955 1.120546 5.216732
v 1.120546 -5.216731 -3.397955
v 2.751850 -4.921335 -2.867716
v -2.175179 -4.564933 -3.800788
v -1.697217 -5.573133 -2.464883
v -2.464883 -1.697217 -5.573133
v -3.800788 -2.175179 -4.564933
v 0.651799 -0.576670 -6.265669
v -0.651799 0.576670 -6.265669
v 2.867716 -2.751850 -4.921335
v 3.397955 -1.120546 -5.216732
v 2.464883 -1.697217 5.573133
v 3.800788 -2.175179 4.564933
v -0.651799 -0.576670 6.265669
v 0.651799 0.576670 6.265669
v -2.867716 -2.751850 4.921335
v -3.397955 -1.120546 5.216732
v -1.120546 -5.216731 3.397955
v -2.751850 -4.921335 2.867716
v 2.175179 -4.564933 3.800788
v 1.697217 -5.573133 2.464883
v 3.652000 3.652000 -3.652000
v 3.652000 -3.652000 -3.652000
v 3.652000 3.652000 3.652000
v 3.652000 -3.652000 3.652000
v -3.652000 3.652000 -3.652000
v -3.652000 -3.652000 -3.652000
v -3.652000 3.652000 3.652000
v -3.652000 -3.652000 3.652000
v 2.257061 0.000001 -5.909060
v -2.257061 -0.000001 -5.909060
v 2.257061 -0.000001 5.909060
v -2.257061 0.000001 5.909060
v 5.909060 2.257061 -0.000001
v 5.909060 -2.257061 0.000001
v -5.909060 2.257061 0.000001
v -5.909060 -2.257061 -0.000001
v 0.000001 5.909060 -2.257061
v -0.000001 5.909060 2.257061
v -0.000001 -5.909060 -2.257061
v 0.000001 -5.909060 2.257061
vn 0.7638 0.3933 -0.5118
vn 0.9727 0.1537 -0.1737
vn 0.9175 -0.2983 -0.2631
vn 0.6744 -0.3381 -0.6564
vn 0.5794 0.0894 -0.8101
vn -0.6744 0.3381 -0.6564
vn -0.5794 -0.0894 -0.8101
vn -0.7638 -0.3933 -0.5118
vn -0.9727 -0.1537 -0.1737
vn -0.9175 0.2983 -0.2631
vn 0.6744 0.3381 0.6564
vn 0.5794 -0.0894 0.8101
vn 0.7638 -0.3933 0.5118
vn 0.9727 -0.1537 0.1737
vn 0.9175 0.2983 0.2631
vn -0.7638 0.3933 0.5118
vn -0.9727 0.1537 0.1737
vn -0.9175 -0.2983 0.2631
vn -0.6744 -0.3381 0.6564
vn -0.5794 0.0894 0.8101
vn 0.5118 0.7638 -0.3933
vn 0.1737 0.9727 -0.1537
vn 0.2631 0.9175 0.2983
vn 0.6564 0.6744 0.3381
vn 0.8101 0.5794 -0.0894
vn 0.6564 -0.6744 -0.3381
vn 0.8101 -0.5794 0.0894
vn 0.5118 -0.7638 0.3933
vn 0.1737 -0.9727 0.1537
vn 0.2631 -0.9175 -0.2983
vn -0.6564 0.6744 -0.3381
vn -0.8101 0.5794 0.0894
vn -0.5118 0.7638 0.3933
vn -0.1737 0.9727 0.1537
vn -0.2631 0.9175 -0.2983
vn -0.5118 -0.7638 -0.3933
vn -0.1737 -0.9727 -0.1537
vn -0.2631 -0.9175 0.2983
vn -0.6564 -0.6744 0.3381
vn -0.8101 -0.5794 -0.0894
vn 0.3933 0.5118 -0.7638
vn 0.1537 0.1737 -0.9727
vn -0.2983 0.2631 -0.9175
vn -0.3381 0.6564 -0.6744
vn 0.0894 0.8101 -0.5794
vn 0.3381 0.6564 0.6744
vn -0.0894 0.8101 0.5794
vn -0.3933 0.5118 0.7638
vn -0.1537 0.1737 0.9727
vn 0.2983 0.2631 0.9175
vn 0.3381 -0.6564 -0.6744
vn -0.0894 -0.8101 -0.5794
vn -0.3933 -0.5118 -0.7638
vn -0.1537 -0.1737 -0.9727
vn 0.2983 -0.2631 -0.9175
vn 0.3933 -0.5118 0.7638
vn 0.1537 -0.1737 0.9727
vn -0.2983 -0.2631 0.9175
vn -0.3381 -0.6564 0.6744
vn 0.0894 -0.8101 0.5794
s 0
f 38//1 19//1 20//1
f 20//2 13//2 14//2
f 14//3 21//3 22//3
f 22//4 61//4 62//4
f 62//5 37//5 38//5
f 26//6 39//6 40//6
f 40//7 57//7 58//7
f 58//8 35//8 36//8
f 36//9 15//9 16//9
f 16//10 25//10 26//10
f 18//11 51//11 52//11
f 52//12 63//12 64//12
f 64//13 23//13 24//13
f 24//14 14//14 13//14
f 13//15 17//15 18//15
f 50//16 27//16 28//16
f 28//17 16//17 15//17
f 15//18 33//18 34//18
f 34//19 67//19 68//19
f 68//20 49//20 50//20
f 19//21 43//21 44//21
f 44//22 29//22 30//22
f 30//23 45//23 46//23
f 46//24 18//24 17//24
f 17//25 20//25 19//25
f 54//26 22//26 21//26
f 21//27 24//27 23//27
f 23//28 71//28 72//28
f 72//29 31//29 32//29
f 32//30 53//30 54//30
f 42//31 26//31 25//31
f 25//32 28//32 27//32
f 27//33 47//33 48//33
f 48//34 30//34 29//34
f 29//35 41//35 42//35
f 35//36 55//36 56//36
f 56//37 32//37 31//37
f 31//38 69//38 70//38
f 70//39 34//39 33//39
f 33//40 36//40 35//40
f 43//41 38//41 37//41
f 37//42 59//42 60//42
f 60//43 40//43 39//43
f 39//44 42//44 41//44
f 41//45 44//45 43//45
f 51//46 46//46 45//46
f 45//47 48//47 47//47
f 47//48 50//48 49//48
f 49//49 65//49 66//49
f 66//50 52//50 51//50
f 61//51 54//51 53//51
f 53//52 56//52 55//52
f 55//53 58//53 57//53
f 57//54 60//54 59//54
f 59//55 62//55 61//55
f 71//56 64//56 63//56
f 63//57 66//57 65//57
f 65//58 68//58 67//58
f 67//59 70//59 69//59
f 69//60 72//60 71//60
f 20//1 1//1 38//1
f 38//1 73//1 19//1
f 14//2 1//2 20//2
f 20//2 85//2 13//2
f 22//3 1//3 14//3
f 14//3 86//3 21//3
f 62//4 1//4 22//4
f 22//4 74//4 61//4
f 38//5 1//5 62//5
f 62//5 81//5 37//5
f 40//6 2//6 26//6
f 26//6 77//6 39//6
f 58//7 2//7 40//7
f 40//7 82//7 57//7
f 36//8 2//8 58//8
f 58//8 78//8 35//8
f 16//9 2//9 36//9
f 36//9 88//9 15//9
f 26//10 2//10 16//10
f 16//10 87//10 25//10
f 52//11 3//11 18//11
f 18//11 75//11 51//11
f 64//12 3//12 52//12
f 52//12 83//12 63//12
f 24//13 3//13 64//13
f 64//13 76//13 23//13
f 13//14 3//14 24//14
f 24//14 86//14 14//14
f 18//15 3//15 13//15
f 13//15 85//15 17//15
f 28//16 4//16 50//16
f 50//16 79//16 27//16
f 15//17 4//17 28//17
f 28//17 87//17 16//17
f 34//18 4//18 15//18
f 15//18 88//18 33//18
f 68//19 4//19 34//19
f 34//19 80//19 67//19
f 50//20 4//20 68//20
f 68//20 84//20 49//20
f 44//21 5//21 19//21
f 19//21 73//21 43//21
f 30//22 5//22 44//22
f 44//22 89//22 29//22
f 46//23 5//23 30//23
f 30//23 90//23 45//23
f 17//24 5//24 46//24
f 46//24 75//24 18//24
f 19//25 5//25 17//25
f 17//25 85//25 20//25
f 21//26 6//26 54//26
f 54//26 74//26 22//26
f 23//27 6//27 21//27
f 21//27 86//27 24//27
f 72//28 6//28 23//28
f 23//28 76//28 71//28
f 32//29 6//29 72//29
f 72//29 92//29 31//29
f 54//30 6//30 32//30
f 32//30 91//30 53//30
f 25//31 7//31 42//31
f 42//31 77//31 26//31
f 27//32 7//32 25//32
f 25//32 87//32 28//32
f 48//33 7//33 27//33
f 27//33 79//33 47//33
f 29//34 7//34 48//34
f 48//34 90//34 30//34
f 42//35 7//35 29//35
f 29//35 89//35 41//35
f 56//36 8//36 35//36
f 35//36 78//36 55//36
f 31//37 8//37 56//37
f 56//37 91//37 32//37
f 70//38 8//38 31//38
f 31//38 92//38 69//38
f 33//39 8//39 70//39
f 70//39 80//39 34//39
f 35//40 8//40 33//40
f 33//40 88//40 36//40
f 37//41 9//41 43//41
f 43//41 73//41 38//41
f 60//42 9//42 37//42
f 37//42 81//42 59//42
f 39//43 9//43 60//43
f 60//43 82//43 40//43
f 41//44 9//44 39//44
f 39//44 77//44 42//44
f 43//45 9//45 41//45
f 41//45 89//45 44//45
f 45//46 10//46 51//46
f 51//46 75//46 46//46
f 47//47 10//47 45//47
f 45//47 90//47 48//47
f 49//48 10//48 47//48
f 47//48 79//48 50//48
f 66//49 10//49 49//49
f 49//49 84//49 65//49
f 51//50 10//50 66//50
f 66//50 83//50 52//50
f 53//51 11//51 61//51
f 61//51 74//51 54//51
f 55//52 11//52 53//52
f 53//52 91//52 56//52
f 57//53 11//53 55//53
f 55//53 78//53 58//53
f 59//54 11//54 57//54
f 57//54 82//54 60//54
f 61//55 11//55 59//55
f 59//55 81//55 62//55
f 63//56 12//56 71//56
f 71//56 76//56 64//56
f 65//57 12//57 63//57
f 63//57 83//57 66//57
f 67//58 12//58 65//58
f 65//58 84//58 68//58
f 69//59 12//59 67//59
f 67//59 80//59 70//59
f 71//60 12//60 69//60
f 69//60 92//60 72//60
